<svg id="Group_35" data-name="Group 35" xmlns="http://www.w3.org/2000/svg" width="80" height="80" viewBox="0 0 80 80">
  <path id="Path_32" data-name="Path 32" d="M0,0H80V80H0Z" fill="none"/>
  <path id="Path_33" data-name="Path 33" d="M32.854,1,60.111,7.079a3.327,3.327,0,0,1,2.6,3.249V43.574a19.99,19.99,0,0,1-8.863,16.618L32.854,74.236,11.863,60.192A19.985,19.985,0,0,1,3,43.577V10.328A3.327,3.327,0,0,1,5.6,7.079Zm0,6.821L9.634,13V43.574a13.327,13.327,0,0,0,5.908,11.079L32.854,66.237,50.167,54.652a13.321,13.321,0,0,0,5.908-11.075V13L32.854,7.824ZM47.622,25.041l4.694,4.707L31.206,50.934,17.131,36.809l4.69-4.707L31.2,41.516l16.42-16.478Z" transform="translate(7.146 2.382)" fill="#c4aea3"/>
</svg>
