<svg width="24" height="24" viewBox="0 0 24 24" fill="none" xmlns="http://www.w3.org/2000/svg">
<path d="M3.49201 8.06502L4.77801 19H19.222L20.508 8.06502L16.5 10.738L12 4.44102L7.50001 10.741L3.49201 8.06502ZM2.80001 5.20002L7.00001 8.00002L11.186 2.14002C11.2785 2.01039 11.4006 1.90473 11.5422 1.83182C11.6838 1.75892 11.8408 1.72089 12 1.72089C12.1593 1.72089 12.3162 1.75892 12.4578 1.83182C12.5994 1.90473 12.7215 2.01039 12.814 2.14002L17 8.00002L21.2 5.20002C21.359 5.09427 21.5449 5.03623 21.7358 5.03276C21.9266 5.02929 22.1145 5.08053 22.2772 5.18044C22.4399 5.28035 22.5706 5.42474 22.6539 5.59656C22.7371 5.76837 22.7694 5.96042 22.747 6.15002L21.1 20.117C21.0714 20.3603 20.9544 20.5845 20.7714 20.7473C20.5883 20.9101 20.3519 21 20.107 21H3.88901C3.64407 21 3.40767 20.9101 3.22464 20.7473C3.0416 20.5845 2.92466 20.3603 2.89601 20.117L1.25301 6.14902C1.23081 5.9595 1.26329 5.76759 1.34663 5.59594C1.42996 5.42428 1.56067 5.28006 1.72332 5.18028C1.88597 5.08051 2.07377 5.02935 2.26455 5.03285C2.45533 5.03634 2.64113 5.09435 2.80001 5.20002V5.20002ZM12 15C11.6044 15 11.2178 14.8827 10.8889 14.663C10.56 14.4432 10.3036 14.1308 10.1522 13.7654C10.0009 13.3999 9.96127 12.9978 10.0384 12.6098C10.1156 12.2219 10.3061 11.8655 10.5858 11.5858C10.8655 11.3061 11.2219 11.1156 11.6098 11.0385C11.9978 10.9613 12.3999 11.0009 12.7654 11.1523C13.1308 11.3036 13.4432 11.56 13.6629 11.8889C13.8827 12.2178 14 12.6045 14 13C14 13.5305 13.7893 14.0392 13.4142 14.4142C13.0391 14.7893 12.5304 15 12 15Z" fill="black"/>
</svg>
