<svg id="Group_80" data-name="Group 80" xmlns="http://www.w3.org/2000/svg" width="24" height="24" viewBox="0 0 24 24">
  <path id="Path_111" data-name="Path 111" d="M0,0H24V24H0Z" fill="none"/>
  <path id="Path_112" data-name="Path 112" d="M3.492,8.065,4.778,19H19.222L20.508,8.065,16.5,10.738,12,4.441l-4.5,6.3L3.492,8.065ZM2.8,5.2,7,8l4.186-5.86a1,1,0,0,1,1.628,0L17,8l4.2-2.8a1,1,0,0,1,1.547.95L21.1,20.117a1,1,0,0,1-.993.883H3.889a1,1,0,0,1-.993-.883L1.253,6.149A1,1,0,0,1,2.8,5.2ZM12,15a2,2,0,1,1,2-2A2,2,0,0,1,12,15Z" fill="#c4aea3"/>
</svg>
