<svg id="Group_269" data-name="Group 269" xmlns="http://www.w3.org/2000/svg" width="80" height="80" viewBox="0 0 80 80">
  <path id="Path_219" data-name="Path 219" d="M0,0H80V80H0Z" fill="none"/>
  <path id="Path_220" data-name="Path 220" d="M35.333,68.667A33.333,33.333,0,1,1,68.667,35.333,33.333,33.333,0,0,1,35.333,68.667Zm0-6.667A26.667,26.667,0,1,0,8.667,35.333,26.667,26.667,0,0,0,35.333,62Zm16.3-38.257L23.743,51.637a20.133,20.133,0,0,1-4.713-4.713L46.923,19.03a20.133,20.133,0,0,1,4.713,4.713Z" transform="translate(4.667 4.667)" fill="#f55656"/>
</svg>
