<svg id="Group_82" data-name="Group 82" xmlns="http://www.w3.org/2000/svg" width="24" height="24" viewBox="0 0 24 24">
  <path id="Path_115" data-name="Path 115" d="M0,0H24V24H0Z" fill="none"/>
  <path id="Path_116" data-name="Path 116" d="M6.75,2.5A4.25,4.25,0,0,1,11,6.75V11H6.75a4.25,4.25,0,1,1,0-8.5ZM9,9V6.75A2.25,2.25,0,1,0,6.75,9ZM6.75,13H11v4.25A4.25,4.25,0,1,1,6.75,13Zm0,2A2.25,2.25,0,1,0,9,17.25V15ZM17.25,2.5a4.25,4.25,0,1,1,0,8.5H13V6.75A4.25,4.25,0,0,1,17.25,2.5Zm0,6.5A2.25,2.25,0,1,0,15,6.75V9ZM13,13h4.25A4.25,4.25,0,1,1,13,17.25Zm2,2v2.25A2.25,2.25,0,1,0,17.25,15Z" fill="#c4aea3"/>
</svg>
