<svg width="24" height="24" viewBox="0 0 24 24" fill="none" xmlns="http://www.w3.org/2000/svg">
<path d="M21 13.242V20H22V22H2V20H3V13.242C2.04172 12.6016 1.36572 11.6178 1.11137 10.4937C0.857029 9.36948 1.04374 8.19057 1.633 7.2L4.345 2.5C4.43277 2.34798 4.559 2.22175 4.71102 2.13398C4.86303 2.04621 5.03547 2 5.211 2H18.79C18.9655 2 19.138 2.04621 19.29 2.13398C19.442 2.22175 19.5682 2.34798 19.656 2.5L22.356 7.182C22.9518 8.17289 23.1433 9.35508 22.8908 10.4834C22.6383 11.6117 21.9613 12.5995 21 13.242V13.242ZM19 13.972C18.3125 14.0488 17.6165 13.9661 16.9661 13.7302C16.3157 13.4943 15.7285 13.1117 15.25 12.612C14.8299 13.0506 14.3254 13.3997 13.7669 13.6381C13.2084 13.8766 12.6073 13.9995 12 13.9995C11.3927 13.9995 10.7916 13.8766 10.2331 13.6381C9.67456 13.3997 9.17006 13.0506 8.75 12.612C8.27163 13.1119 7.68444 13.4947 7.03406 13.7308C6.38368 13.9668 5.68763 14.0497 5 13.973V20H19V13.973V13.972ZM5.789 4L3.356 8.213C3.11958 8.79714 3.11248 9.44903 3.33613 10.0382C3.55978 10.6273 3.99768 11.1103 4.56218 11.3904C5.12669 11.6705 5.77615 11.7271 6.38058 11.5488C6.98502 11.3706 7.49984 10.9706 7.822 10.429C7.89638 10.2437 8.02452 10.085 8.1899 9.97315C8.35529 9.86134 8.55036 9.80158 8.75 9.80158C8.94964 9.80158 9.14471 9.86134 9.3101 9.97315C9.47549 10.085 9.60362 10.2437 9.678 10.429C9.8633 10.8934 10.1836 11.2916 10.5975 11.5721C11.0115 11.8526 11.5 12.0025 12 12.0025C12.5 12.0025 12.9886 11.8526 13.4025 11.5721C13.8164 11.2916 14.1367 10.8934 14.322 10.429C14.3964 10.2437 14.5245 10.085 14.6899 9.97315C14.8553 9.86134 15.0504 9.80158 15.25 9.80158C15.4496 9.80158 15.6447 9.86134 15.8101 9.97315C15.9755 10.085 16.1036 10.2437 16.178 10.429C16.3068 10.7496 16.5006 11.04 16.7473 11.282C16.994 11.5239 17.2881 11.7121 17.6112 11.8346C17.9343 11.9571 18.2792 12.0114 18.6243 11.9939C18.9693 11.9764 19.307 11.8876 19.6161 11.7331C19.9251 11.5785 20.1987 11.3616 20.4197 11.096C20.6406 10.8304 20.8042 10.5218 20.8999 10.1899C20.9957 9.85789 21.0215 9.50966 20.976 9.16718C20.9304 8.82469 20.8143 8.49537 20.635 8.2L18.21 4H5.79H5.789Z" fill="black"/>
</svg>
