<svg id="Group_3962" data-name="Group 3962" xmlns="http://www.w3.org/2000/svg" width="40" height="40" viewBox="0 0 40 40">
  <path id="Path_262" data-name="Path 262" d="M0,0H40V40H0Z" fill="none"/>
  <path id="Path_263" data-name="Path 263" d="M35.333,9.667H37V26.333H35.333v5A1.667,1.667,0,0,1,33.667,33h-30A1.667,1.667,0,0,1,2,31.333V4.667A1.667,1.667,0,0,1,3.667,3h30a1.667,1.667,0,0,1,1.667,1.667ZM32,26.333H22A8.333,8.333,0,0,1,22,9.667H32V6.333H5.333V29.667H32ZM33.667,23V13H22a5,5,0,0,0,0,10ZM22,16.333h5v3.333H22Z" transform="translate(1.333 2)" fill="#c4aea3"/>
</svg>
