<svg id="Group_285" data-name="Group 285" xmlns="http://www.w3.org/2000/svg" width="40" height="40" viewBox="0 0 40 40">
  <path id="Path_227" data-name="Path 227" d="M0,0H40V40H0Z" fill="none"/>
  <path id="Path_228" data-name="Path 228" d="M24.333,2a6.667,6.667,0,0,1,5.773,10l7.56,0v3.333H34.333V32a1.667,1.667,0,0,1-1.667,1.667H6A1.667,1.667,0,0,1,4.333,32V15.333H1V12l7.56,0A6.667,6.667,0,0,1,19.333,4.258a6.638,6.638,0,0,1,5-2.258ZM17.667,15.333h-10v15h10Zm13.333,0H21v15H31Zm-16.667-10a3.333,3.333,0,0,0-.25,6.658l.25.008h3.333V8.667a3.333,3.333,0,0,0-2.828-3.3l-.257-.03Zm10,0a3.333,3.333,0,0,0-3.325,3.083L21,8.667V12h3.333a3.333,3.333,0,0,0,3.325-3.083l.008-.25A3.333,3.333,0,0,0,24.333,5.333Z" transform="translate(0.667 1.333)" fill="#c4aea3"/>
</svg>
