<svg xmlns="http://www.w3.org/2000/svg" width="50" height="50" viewBox="0 0 50 50">
  <g id="Group_14" data-name="Group 14" transform="translate(-188 -515)">
    <rect id="Rectangle_26" data-name="Rectangle 26" width="50" height="50" rx="6" transform="translate(188 515)" fill="#c14949"/>
    <g id="Group_13" data-name="Group 13" transform="translate(201 528)">
      <path id="Path_13" data-name="Path 13" d="M0,0H24V24H0Z" fill="none"/>
      <path id="Path_14" data-name="Path 14" d="M12,11h8.533a10.424,10.424,0,0,1,.067,1.184,8.76,8.76,0,0,1-2.678,6.6,8.572,8.572,0,0,1-5.942,2.175A8.979,8.979,0,1,1,11.98,3a8.63,8.63,0,0,1,6.008,2.339L16.526,6.8A6.422,6.422,0,0,0,12,5a7,7,0,0,0,0,14,6.616,6.616,0,0,0,6.577-6H12Z" fill="#fff"/>
    </g>
  </g>
</svg>
