<svg id="Group_108" data-name="Group 108" xmlns="http://www.w3.org/2000/svg" width="20" height="20" viewBox="0 0 20 20">
  <path id="Path_134" data-name="Path 134" d="M0,0H20V20H0Z" fill="none"/>
  <path id="Path_135" data-name="Path 135" d="M10,17.421l3.85-4.039a5.911,5.911,0,0,0,0-8.077,5.266,5.266,0,0,0-7.7,0,5.911,5.911,0,0,0,0,8.077Zm0,2.307L5.05,14.536a7.6,7.6,0,0,1,0-10.385,6.771,6.771,0,0,1,9.9,0,7.6,7.6,0,0,1,0,10.385Zm0-8.753A1.634,1.634,0,1,0,8.444,9.343,1.6,1.6,0,0,0,10,10.975Zm0,1.632A3.19,3.19,0,0,1,6.889,9.343,3.19,3.19,0,0,1,10,6.08a3.19,3.19,0,0,1,3.111,3.264A3.19,3.19,0,0,1,10,12.607Z" transform="translate(0)" fill="#c4aea3"/>
</svg>
