<svg id="user" xmlns="http://www.w3.org/2000/svg" width="20" height="20" viewBox="0 0 20 20">
  <g id="Group_42" data-name="Group 42">
    <path id="Path_41" data-name="Path 41" d="M10,0A10,10,0,1,0,20,10,10.012,10.012,0,0,0,10,0Zm0,18.75a8.7,8.7,0,0,1-5.855-2.266,2.493,2.493,0,0,1,.365-.12l2.735-.549a1.875,1.875,0,0,0,1.5-1.84v-.85a.629.629,0,0,0-.182-.442,5.269,5.269,0,0,1-.476-.825,4.467,4.467,0,0,0-.674-1.088A3,3,0,0,1,6.5,9.411a.807.807,0,0,1,.052-.655,1.2,1.2,0,0,0,.161-.569L6.7,7.705a7.21,7.21,0,0,1,.1-1.793A3.634,3.634,0,0,1,9.988,3.75a3.116,3.116,0,0,1,1.5.4,2.6,2.6,0,0,0,.815.235,2.211,2.211,0,0,1,.453.1c.175.188.309.4.32,1.27a.612.612,0,0,0,.025.164,10.165,10.165,0,0,1,.187,2.265,1.206,1.206,0,0,0,.152.559.84.84,0,0,1,.048.666,2.984,2.984,0,0,1-.909,1.35,4.517,4.517,0,0,0-.676,1.1,5.17,5.17,0,0,1-.469.821.629.629,0,0,0-.182.442v.85a1.873,1.873,0,0,0,1.5,1.838l2.733.549a2.631,2.631,0,0,1,.371.121A8.7,8.7,0,0,1,10,18.75Zm6.769-3.212a3.779,3.779,0,0,0-1.032-.4L13,14.588a.622.622,0,0,1-.5-.613v-.629a7.507,7.507,0,0,0,.517-.92,5,5,0,0,1,.439-.771,4.087,4.087,0,0,0,1.258-1.991,1.92,1.92,0,0,0-.176-1.475,11.073,11.073,0,0,0-.214-2.526,2.758,2.758,0,0,0-.651-2.024,1.933,1.933,0,0,0-1.161-.487,2.02,2.02,0,0,1-.426-.1A4.425,4.425,0,0,0,9.974,2.5,4.935,4.935,0,0,0,5.626,5.484a7.087,7.087,0,0,0-.171,2.251l-.015.451a2,2,0,0,0-.165,1.476,4.086,4.086,0,0,0,1.266,2,5.54,5.54,0,0,1,.439.768,7.525,7.525,0,0,0,.52.916v.629a.623.623,0,0,1-.5.613l-2.744.551a3.759,3.759,0,0,0-1.026.4,8.749,8.749,0,1,1,13.536,0Z"/>
  </g>
</svg>
