<svg id="Group_28" data-name="Group 28" xmlns="http://www.w3.org/2000/svg" width="24" height="24" viewBox="0 0 24 24">
  <path id="Path_13" data-name="Path 13" d="M24,0H0V24H24Z" fill="none"/>
  <path id="Path_14" data-name="Path 14" d="M14.634,10.682a10.556,10.556,0,0,1-3.952,3.952L9.8,13.4A1,1,0,0,0,8.5,13.1a11.422,11.422,0,0,1-4.583,1.364,1,1,0,0,0-.921,1v4.462a1,1,0,0,0,.9,1A15.509,15.509,0,0,0,20.918,3.9a1,1,0,0,0-.995-.9H15.461a1,1,0,0,0-1,.921A11.422,11.422,0,0,1,13.1,8.5,1,1,0,0,0,13.4,9.8l1.238.884Zm2.522-.657-1.9-1.357A13.41,13.41,0,0,0,16.353,5H18.99c.006.166.009.333.009.5A13.5,13.5,0,0,1,5.5,19c-.167,0-.334,0-.5-.01V16.353a13.41,13.41,0,0,0,3.668-1.1l1.357,1.9a12.442,12.442,0,0,0,1.588-.75l.058-.033a12.556,12.556,0,0,0,4.7-4.7l.033-.058a12.442,12.442,0,0,0,.75-1.588Z" transform="translate(0)" fill="#c4aea3"/>
</svg>
