<svg width="24" height="24" viewBox="0 0 24 24" fill="none" xmlns="http://www.w3.org/2000/svg">
<path d="M20 22H18V20C18 19.2044 17.6839 18.4413 17.1213 17.8787C16.5587 17.3161 15.7956 17 15 17H9C8.20435 17 7.44129 17.3161 6.87868 17.8787C6.31607 18.4413 6 19.2044 6 20V22H4V20C4 18.6739 4.52678 17.4022 5.46447 16.4645C6.40215 15.5268 7.67392 15 9 15H15C16.3261 15 17.5979 15.5268 18.5355 16.4645C19.4732 17.4022 20 18.6739 20 20V22ZM12 13C10.8133 13 9.65327 12.6481 8.66658 11.9888C7.67988 11.3295 6.91085 10.3925 6.45672 9.2961C6.0026 8.19975 5.88378 6.99335 6.11529 5.82946C6.3468 4.66558 6.91824 3.59648 7.75736 2.75736C8.59647 1.91825 9.66557 1.3468 10.8295 1.11529C11.9933 0.88378 13.1997 1.0026 14.2961 1.45673C15.3925 1.91085 16.3295 2.67989 16.9888 3.66658C17.6481 4.65328 18 5.81331 18 7C18 8.5913 17.3679 10.1174 16.2426 11.2426C15.1174 12.3679 13.5913 13 12 13ZM12 11C12.7911 11 13.5645 10.7654 14.2223 10.3259C14.8801 9.88636 15.3928 9.26164 15.6955 8.53074C15.9983 7.79983 16.0775 6.99557 15.9231 6.21964C15.7688 5.44372 15.3878 4.73099 14.8284 4.17158C14.269 3.61217 13.5563 3.2312 12.7804 3.07686C12.0044 2.92252 11.2002 3.00173 10.4693 3.30448C9.73836 3.60724 9.11365 4.11993 8.67412 4.77772C8.2346 5.43552 8 6.20888 8 7C8 8.06087 8.42143 9.07828 9.17157 9.82843C9.92172 10.5786 10.9391 11 12 11Z" fill="black"/>
</svg>
