<svg width="24" height="24" viewBox="0 0 24 24" fill="none" xmlns="http://www.w3.org/2000/svg">
<path d="M5.763 17H20V5H4V18.385L5.763 17ZM6.455 19L2 22.5V4C2 3.73478 2.10536 3.48043 2.29289 3.29289C2.48043 3.10536 2.73478 3 3 3H21C21.2652 3 21.5196 3.10536 21.7071 3.29289C21.8946 3.48043 22 3.73478 22 4V18C22 18.2652 21.8946 18.5196 21.7071 18.7071C21.5196 18.8946 21.2652 19 21 19H6.455ZM11 14H13V16H11V14ZM8.567 8.813C8.69709 8.16312 9.00903 7.56354 9.46653 7.084C9.92403 6.60447 10.5083 6.26468 11.1513 6.10418C11.7944 5.94368 12.4698 5.96906 13.0989 6.17736C13.7281 6.38567 14.2852 6.76833 14.7055 7.28085C15.1257 7.79337 15.3917 8.41467 15.4727 9.07248C15.5537 9.73028 15.4462 10.3976 15.1628 10.9967C14.8794 11.5958 14.4317 12.1021 13.8718 12.4568C13.3119 12.8114 12.6628 12.9998 12 13H11V11H12C12.2841 11 12.5623 10.9193 12.8023 10.7673C13.0423 10.6154 13.2343 10.3984 13.3558 10.1416C13.4773 9.8848 13.5234 9.5988 13.4887 9.31684C13.454 9.03489 13.34 8.76858 13.1598 8.54891C12.9797 8.32924 12.7409 8.16523 12.4712 8.07597C12.2015 7.98671 11.912 7.97587 11.6364 8.04471C11.3608 8.11354 11.1104 8.25923 10.9144 8.46482C10.7183 8.6704 10.5847 8.92743 10.529 9.206L8.567 8.813Z" fill="black"/>
</svg>
