<svg id="Group_231" data-name="Group 231" xmlns="http://www.w3.org/2000/svg" width="20" height="20" viewBox="0 0 20 20">
  <path id="Path_202" data-name="Path 202" d="M0,0H20V20H0Z" fill="none"/>
  <path id="Path_203" data-name="Path 203" d="M10,1l6.391,1.494a.81.81,0,0,1,.609.8v8.171a4.981,4.981,0,0,1-2.078,4.084L10,19,5.078,15.548A4.98,4.98,0,0,1,3,11.465V3.293a.81.81,0,0,1,.609-.8Zm0,1.676L4.556,3.949v7.515a3.321,3.321,0,0,0,1.385,2.723L10,17.034l4.059-2.847a3.319,3.319,0,0,0,1.385-2.722V3.949L10,2.677Zm3.463,4.232,1.1,1.157-4.95,5.207L6.313,9.8l1.1-1.157,2.2,2.314,3.85-4.05Z" transform="translate(0)" fill="#c4aea3"/>
</svg>
