<svg id="Group_106" data-name="Group 106" xmlns="http://www.w3.org/2000/svg" width="24" height="24" viewBox="0 0 24 24">
  <path id="Path_113" data-name="Path 113" d="M0,0H24V24H0Z" fill="none"/>
  <path id="Path_114" data-name="Path 114" d="M21,13.242V20h1v2H2V20H3V13.242A4.5,4.5,0,0,1,1.633,7.2L4.345,2.5A1,1,0,0,1,5.211,2H18.79a1,1,0,0,1,.866.5l2.7,4.682A4.5,4.5,0,0,1,21,13.242Zm-2,.73a4.5,4.5,0,0,1-3.75-1.36,4.5,4.5,0,0,1-6.5,0A4.5,4.5,0,0,1,5,13.973V20H19V13.973ZM5.789,4,3.356,8.213a2.5,2.5,0,0,0,4.466,2.216,1,1,0,0,1,1.856,0,2.5,2.5,0,0,0,4.644,0,1,1,0,0,1,1.856,0A2.5,2.5,0,1,0,20.635,8.2L18.21,4H5.79Z"/>
</svg>
