<svg id="Group_29" data-name="Group 29" xmlns="http://www.w3.org/2000/svg" width="24" height="24" viewBox="0 0 24 24">
  <path id="Path_30" data-name="Path 30" d="M0,0H24V24H0Z" fill="none"/>
  <path id="Path_31" data-name="Path 31" d="M12,17a10.68,10.68,0,0,1,8.607,3.925l-1.842.871A8.867,8.867,0,0,0,12,19a8.867,8.867,0,0,0-6.765,2.8l-1.841-.872A10.677,10.677,0,0,1,12,17ZM12,2a5,5,0,0,1,5,5v3a5,5,0,0,1-4.783,4.995L12,15a5,5,0,0,1-5-5V7a5,5,0,0,1,4.783-4.995Zm0,2A3,3,0,0,0,9,6.824L9,7v3a3,3,0,0,0,5.995.176L15,10V7a3,3,0,0,0-3-3Z" fill="#c4aea3"/>
</svg>
