<svg id="Group_116" data-name="Group 116" xmlns="http://www.w3.org/2000/svg" width="30" height="30" viewBox="0 0 30 30">
  <path id="Path_140" data-name="Path 140" d="M0,0H30V30H0Z" fill="none"/>
  <path id="Path_141" data-name="Path 141" d="M27.406,7.435A45.118,45.118,0,0,1,28,15a45.118,45.118,0,0,1-.594,7.565,3.777,3.777,0,0,1-2.519,2.78C22.665,26,15,26,15,26s-7.661,0-9.886-.654a3.777,3.777,0,0,1-2.519-2.78A45.118,45.118,0,0,1,2,15a45.118,45.118,0,0,1,.594-7.565,3.777,3.777,0,0,1,2.519-2.78C7.339,4,15,4,15,4s7.665,0,9.886.655A3.777,3.777,0,0,1,27.406,7.435ZM12.4,19.813,20.2,15l-7.8-4.812Z" transform="translate(0)" fill="#fbfbfb"/>
</svg>
