<svg id="Group_41" data-name="Group 41" xmlns="http://www.w3.org/2000/svg" width="20" height="20" viewBox="0 0 20 20">
  <path id="Path_40" data-name="Path 40" d="M10,0A10,10,0,1,0,20,10,10.012,10.012,0,0,0,10,0Zm0,18.75a8.7,8.7,0,0,1-5.855-2.266,2.493,2.493,0,0,1,.365-.12l2.735-.549a1.875,1.875,0,0,0,1.5-1.84v-1.25a.625.625,0,0,0-.585-.624,8.468,8.468,0,0,1-2.536-.414A37.385,37.385,0,0,1,6.8,5.913,3.634,3.634,0,0,1,9.987,3.75a3.116,3.116,0,0,1,1.5.4,2.6,2.6,0,0,0,.815.235,2.211,2.211,0,0,1,.453.1c.175.188.309.4.32,1.27a.642.642,0,0,0,.026.169,38.4,38.4,0,0,1,1.267,5.72,9.431,9.431,0,0,1-2.537.417.627.627,0,0,0-.58.625v1.287a1.873,1.873,0,0,0,1.5,1.838l2.732.549a2.631,2.631,0,0,1,.371.121A8.7,8.7,0,0,1,10,18.75Zm6.769-3.212a3.779,3.779,0,0,0-1.032-.4L13,14.588a.622.622,0,0,1-.5-.613v-.712c2.731-.26,3.125-.819,3.125-1.387a33.768,33.768,0,0,0-1.3-6.22,2.753,2.753,0,0,0-.651-2.016,1.933,1.933,0,0,0-1.161-.487,2.02,2.02,0,0,1-.426-.1A4.425,4.425,0,0,0,9.974,2.5,4.946,4.946,0,0,0,5.61,5.53a34.787,34.787,0,0,0-1.235,6.345c0,.809.914,1.235,3.125,1.43v.671a.623.623,0,0,1-.5.612l-2.744.551a3.759,3.759,0,0,0-1.026.4,8.75,8.75,0,1,1,13.536,0Z"/>
</svg>
